<svg width="116" height="48" viewBox="0 0 116 48" fill="none" xmlns="http://www.w3.org/2000/svg">
<g clip-path="url(#clip0_937_11934)">
<path d="M95.7186 39.8817C95.2987 39.8817 94.5553 39.3228 94.2527 39.0118C92.9468 37.6597 92.4861 35.7146 93.0558 33.9329C94.4462 29.5736 96.829 25.2722 98.3175 22.8105C95.763 23.501 93.3639 23.3455 91.1448 22.3466C83.2114 18.7701 80.5861 5.64192 80.477 5.0858L80.1035 3.15387L81.7992 4.23712C81.8619 4.27665 88.2086 8.31182 92.6796 9.56112C98.4729 11.1794 101.829 13.823 103.263 15.1856C103.666 14.387 103.942 13.4619 104.209 12.5578C104.866 10.3518 105.61 7.85059 108.426 7.37881C112.685 6.66455 115.076 10.9606 115.176 11.1425L116 12.6527L114.26 12.3496C112.764 12.0887 112.338 12.2864 112.227 12.3839C111.935 12.6343 111.998 13.6675 112.06 14.6637C112.159 16.2398 112.292 18.3984 111.482 20.7863C110.024 25.0903 105.114 27.4492 101.864 29.0095C100.594 29.6184 99.3971 30.1956 98.9881 30.6199C98.2439 31.3922 97.4505 34.294 96.9107 38.1921C96.8317 38.7693 96.694 39.5087 96.1242 39.6853C95.9661 39.7354 96.327 40.0782 95.9214 39.6853L95.7186 39.8817ZM100.956 21.8221C100.226 22.937 96.5209 28.7275 94.7025 34.4258C94.3563 35.5143 94.6233 36.3136 95.313 37.2071C95.7546 34.1497 96.4773 30.7912 97.7286 29.4919C98.3502 28.8461 99.5634 28.2636 101.098 27.5257C104.269 26.0023 108.609 23.9148 109.844 20.275C110.553 18.1876 110.433 16.2926 110.34 14.7692C110.242 13.1851 110.163 11.9332 111.084 11.1425C111.466 10.813 111.965 10.6259 112.622 10.5758C111.771 9.68763 110.427 8.74143 108.721 9.02345C107.052 9.30282 106.548 10.7234 105.864 13.0217C105.447 14.4265 105.013 15.8761 104.097 17.0648L103.421 17.9425L102.726 17.0753C102.696 17.0384 99.5225 13.2088 92.1998 11.161C88.9501 10.2517 84.9262 8.05617 82.6444 6.71726C83.6694 10.4309 86.442 18.3905 91.8727 20.8364C94.5798 22.0567 97.6741 21.7325 101.079 19.877L101.924 21.3293C101.6 21.5059 101.275 21.6719 100.954 21.8248L100.956 21.8221Z" fill="#0C6748" stroke="#0C6748" stroke-width="2"/>
<path d="M102.902 16.0642C102.872 16.0063 99.8374 10.2869 95.1319 8.89003C91.6778 7.86476 88.897 5.5454 87.324 3.98773C87.3922 5.49532 87.8802 7.6091 89.8103 9.15359L88.9454 9.62599C84.8643 6.3657 85.7101 1.99255 85.7592 1.77115L86.1463 1.49879e-06L87.2858 1.43643C87.3213 1.48123 90.8463 5.87221 95.6363 7.29546C101.051 8.90584 104.303 15.0522 104.439 15.3131L102.899 16.0616L102.902 16.0642Z" fill="#0C6748" stroke="#0C6748" stroke-width="2"/>
<path d="M0 48V15.8675H4.79665V48H0Z" fill="#0C6748"/>
<path d="M8.97461 18.5306C8.97461 17.0166 10.257 15.7768 11.87 15.7768C13.4831 15.7768 14.6716 17.0166 14.6716 18.5306C14.6716 20.0447 13.4361 21.3298 11.87 21.3298C10.3039 21.3298 8.97461 20.0901 8.97461 18.5306ZM14.2449 48H9.44824V24.5891H14.2449V48Z" fill="#0C6748"/>
<path d="M47.1455 42.9502V28.6734H42.541V24.5891H47.1455V17.7034H51.9422V24.5891H57.4984V28.6734H51.9422V41.9394C51.9422 43.2245 52.8448 43.9135 54.317 43.9135H57.4984V48H52.8917C49.1875 48 47.1455 45.8877 47.1455 42.9502Z" fill="#0C6748"/>
<path d="M18.8965 34.8485V48H23.6931V34.8485C23.6931 31.7426 26.2981 29.2263 29.5085 29.2263C32.7212 29.2263 35.3239 31.7448 35.3239 34.8485V48H40.1206V34.8485C40.1206 29.1831 35.3686 24.5891 29.5085 24.5891C23.6484 24.5891 18.8965 29.1831 18.8965 34.8485Z" fill="#0C6748"/>
<path d="M83.5405 37.7406V24.5891H78.7439V37.7406C78.7439 40.8465 76.1389 43.3627 72.9285 43.3627C69.7158 43.3627 67.1131 40.8443 67.1131 37.7406V24.5891H62.3164V37.7406C62.3164 43.4059 67.0684 48 72.9285 48C78.7885 48 83.5405 43.4059 83.5405 37.7406Z" fill="#0C6748"/>
</g>
<defs>
<clipPath id="clip0_937_11934">
<rect width="116" height="48" fill="white"/>
</clipPath>
</defs>
</svg>
